<svg id="Layer_5" enable-background="new 0 0 64 64" height="512" viewBox="0 0 64 64" width="512" xmlns="http://www.w3.org/2000/svg"><path d="m58 1h-24c-2.757 0-5 2.243-5 5v7h-27v34h23.101c.398 1.955 1.945 3.491 3.899 3.89v7.11c0 2.757 2.243 5 5 5h24c2.757 0 5-2.243 5-5v-52c0-2.757-2.243-5-5-5zm3 5v3h-2v-5.816c1.161.414 2 1.514 2 2.816zm-26.101 41h24.101v-23.382-1.618-11h2v42h-30v-2.11c1.955-.399 3.501-1.935 3.899-3.89zm16.101-44h6v17.382l-3-1.5-3 1.5zm-17 0h15v6h-18v-3c0-1.654 1.346-3 3-3zm-3 8h18v2h-18zm-4 35v-1h-23v-30h45v8.618l5-2.5 3 1.5v22.382h-24v1c0 1.654-1.346 3-3 3s-3-1.346-3-3zm31 15h-24c-1.654 0-3-1.346-3-3v-3h30v3c0 1.654-1.346 3-3 3z"/><path d="m41 57h10v2h-10z"/><path d="m41 5h2v2h-2z"/><path d="m45 5h2v2h-2z"/><path d="m53 15h2v2h-2z"/><path d="m53 11h2v2h-2z"/><path d="m53 7h2v2h-2z"/><path d="m47 17h-14v10h14zm-2 8h-10v-6h10z"/><path d="m33 29h2v2h-2z"/><path d="m37 29h18v2h-18z"/><path d="m33 33h22v2h-22z"/><path d="m33 37h18v2h-18z"/><path d="m53 37h2v2h-2z"/><path d="m33 41h22v2h-22z"/><path d="m29 17h2v26h-2z"/><path d="m6 43h21v-10h-21zm2-8h17v6h-17z"/><path d="m6 17h21v2h-21z"/><path d="m10 21h17v2h-17z"/><path d="m6 21h2v2h-2z"/><path d="m25 25h2v2h-2z"/><path d="m6 25h17v2h-17z"/><path d="m6 29h21v2h-21z"/></svg>