<svg id="Layer_5" enable-background="new 0 0 64 64" height="512" viewBox="0 0 64 64" width="512" xmlns="http://www.w3.org/2000/svg"><path d="m61.465 31.949c.99-.99 1.535-2.307 1.535-3.707 0-2.89-2.352-5.242-5.242-5.242-1.4 0-2.717.545-3.707 1.535l-10.465 10.465h-4.586v-24-2-8h-33c-2.757 0-5 2.243-5 5v38c0 2.757 2.243 5 5 5h17v14h40v-28h-4.586zm-25.028 13.902 3.712 3.712-5.568 1.856zm5.563 2.735-4.586-4.586 10.586-10.586 4.586 4.586zm12-12-4.586-4.586 1.586-1.586 4.586 4.586zm1.465-10.637c.612-.612 1.427-.949 2.293-.949 1.788 0 3.242 1.454 3.242 3.242 0 .866-.337 1.681-.949 2.293l-3.051 3.051-4.586-4.586zm-49.465-22.949h31v6h-31c-1.654 0-3-1.346-3-3s1.346-3 3-3zm-3 41v-34.026c.838.635 1.87 1.026 3 1.026h1v36h-1c-1.654 0-3-1.346-3-3zm6 3v-36h28v24h-14v12zm52-10v24h-36v-24h16.586l-6.46 6.46-3.18 9.54h-4.946v2h32v-2h-22.838l6.378-2.126 13.874-13.874z"/><path d="m57 57h2v2h-2z"/><path d="m27 57h28v2h-28z"/><path d="m47 49h12v2h-12z"/><path d="m57 45h2v2h-2z"/><path d="m53 45h2v2h-2z"/><path d="m49 45h2v2h-2z"/><path d="m14 29h18c1.654 0 3-1.346 3-3v-10c0-1.654-1.346-3-3-3h-18c-1.654 0-3 1.346-3 3v10c0 1.654 1.346 3 3 3zm-1-13c0-.552.448-1 1-1h18c.552 0 1 .448 1 1v10c0 .552-.448 1-1 1h-18c-.552 0-1-.448-1-1z"/><path d="m11 35h10v2h-10z"/><path d="m11 39h10v2h-10z"/><path d="m11 43h6v2h-6z"/><path d="m19 43h2v2h-2z"/></svg>